:SAMPLES-PER-SECOND 30
:FRAME-RANGE 1-663
:FULLY-SPECIFIED
:DEGREES
125
root  -27.7207 19.5224 123.725 173.016 77.765 151.051
RightUpLeg  -93.0355 -7.48126 3.97102
RightLeg  117.449 6.61629 -10.8269
RightFoot  -45.0993 0.737732 3.45786
RightToes  -3.4386e-010 1.2921e-014 -6.02303e-014
Spine  43.4349 -5.00894 4.36999
Spine1  8.28527 1.73556 -8.70012
HEad  -13.5858 -6.51028 -3.70006
LeftShoulder1  2.89935 -14.9448 -8.64958
LeftArm  5.14068 -42.1985 -46.0168
LeftForeArm  -22.3723 -32.9277 -8.42983
LeftHand  -0.128669 2.60402 4.91272
RightShoulder  1.24636 12.1002 -0.260266
RightArm  -67.3566 67.8706 3.00167
RightForeArm  22.3685 3.08049 -9.08755
RightHand  -0.4031 -0.92006 -10.4226
LeftUpLeg  -97.872 -1.6834 -1.54585
LeftLeg  112.235 -3.63795 7.32385
LeftFoot  -34.2548 -0.973081 -5.81884
LeftToes  -7.12384e-010 -7.51861e-011 -8.34901e-011
126
root  -27.7528 19.1404 123.784 178.326 77.8095 158.139
RightUpLeg  -91.95 -7.2777 5.79057
RightLeg  118.616 7.23436 -11.3277
RightFoot  -45.8853 0.780231 3.52969
RightToes  -3.4386e-010 1.2921e-014 -6.02303e-014
Spine  45.8453 -5.62181 6.34492
Spine1  7.54433 2.33031 -9.72298
HEad  -13.7817 -7.16435 -3.94085
LeftShoulder1  3.02791 -14.7796 -9.60602
LeftArm  5.77414 -38.7796 -46.9463
LeftForeArm  -22.9437 -39.6217 -10.5352
LeftHand  -0.103838 4.09756 7.94739
RightShoulder  1.11936 11.8903 -1.08839
RightArm  -72.1201 67.4436 -2.90172
RightForeArm  26.9104 3.13062 -9.46915
RightHand  -0.465084 -0.588821 -11.2367
LeftUpLeg  -97.7041 -1.46294 0.375107
LeftLeg  114.005 -3.63902 6.75461
LeftFoot  -34.5086 -1.08817 -6.32135
LeftToes  -7.12384e-010 -7.51861e-011 -8.34901e-011
127
root  -27.777 18.7626 123.855 -177.549 77.3788 164.119
RightUpLeg  -90.7395 -7.46391 7.41089
RightLeg  119.817 7.83799 -11.7308
RightFoot  -46.7266 0.956315 4.01171
RightToes  -3.4386e-010 1.2921e-014 -6.02303e-014
Spine  48.393 -6.35908 7.85339
Spine1  6.57525 2.65942 -10.6424
HEad  -13.6919 -7.47462 -4.29733
LeftShoulder1  3.14988 -14.7419 -10.3977
LeftArm  6.4281 -35.5133 -47.409
LeftForeArm  -23.4138 -45.4668 -12.8001
LeftHand  -0.0672876 4.80033 10.0266
RightShoulder  1.02071 11.8358 -1.80332
RightArm  -76.0056 66.6786 -7.60432
RightForeArm  31.0298 4.0295 -9.66406
RightHand  -0.493389 -0.165778 -10.9945
LeftUpLeg  -97.3905 -1.77956 2.2131
LeftLeg  115.646 -3.67144 6.34522
LeftFoot  -34.7292 -1.2021 -6.81579
LeftToes  -7.12384e-010 -7.51861e-011 -8.34901e-011
128
root  -27.7734 18.3974 123.964 -172.889 77.3187 170.498
RightUpLeg  -89.569 -6.97655 9.25604
RightLeg  120.821 8.66273 -12.4967
RightFoot  -47.4147 0.988198 4.04367
RightToes  -3.4386e-010 1.2921e-014 -6.02303e-014
Spine  50.6455 -6.73176 8.95143
Spine1  5.88171 3.21294 -11.3848
HEad  -13.5006 -7.57531 -4.49295
LeftShoulder1  3.2492 -14.5827 -11.1882
LeftArm  7.40043 -33.1222 -47.2268
LeftForeArm  -21.0865 -49.8125 -14.7179
LeftHand  -0.0409088 5.13169 10.8382
RightShoulder  0.92169 11.7015 -2.49027
RightArm  -78.973 65.8383 -11.3547
RightForeArm  34.9422 5.91758 -9.33627
RightHand  -0.493864 -0.318615 -11.322
LeftUpLeg  -97.1504 -1.52723 4.29819
LeftLeg  117.341 -3.69376 5.94409
LeftFoot  -34.9048 -1.2845 -7.16277
LeftToes  -7.12384e-010 -7.51861e-011 -8.34901e-011
129
root  -27.7341 18.0535 124.119 -167.512 77.8218 177.476
RightUpLeg  -88.5298 -5.46492 11.1807
RightLeg  121.745 9.5867 -13.3675
RightFoot  -47.6176 1.14362 4.49824
RightToes  -3.4386e-010 1.2921e-014 -6.02303e-014
Spine  52.51 -6.58106 9.46192
Spine1  5.76367 4.11306 -12.0947
HEad  -13.2872 -7.6328 -4.60723
LeftShoulder1  3.28809 -14.4465 -11.5866
LeftArm  8.46002 -31.762 -46.5829
LeftForeArm  -20.8458 -52.8914 -16.4238
LeftHand  -0.0584428 4.94146 11.0001
RightShoulder  0.814442 11.5536 -3.2479
RightArm  -82.525 65.4116 -14.8571
RightForeArm  37.9218 7.70307 -9.44582
RightHand  -0.478643 -0.0335177 -10.416
LeftUpLeg  -96.7411 -0.417778 6.56191
LeftLeg  119.068 -3.52883 5.26518
LeftFoot  -35.3289 -1.39589 -7.56777
LeftToes  -7.12384e-010 -7.51861e-011 -8.34901e-011
130
root  -27.7283 17.7731 124.227 -164.035 77.1125 -177.631
RightUpLeg  -87.6753 -5.50779 12.7244
RightLeg  122.682 10.2899 -13.8582
RightFoot  -47.8191 1.11151 4.37886
RightToes  -3.4386e-010 1.2921e-014 -6.02303e-014
Spine  54.1707 -7.03088 10.0699
Spine1  5.30106 4.22474 -12.5252
HEad  -12.7559 -7.61233 -4.88834
LeftShoulder1  3.37882 -14.6757 -11.8822
LeftArm  8.8456 -30.1433 -45.5288
LeftForeArm  -21.4288 -55.6944 -18.2932
LeftHand  -0.0186378 5.39176 9.86137
RightShoulder  0.722504 11.3567 -3.88366
RightArm  -84.3468 65.4478 -17.4625
RightForeArm  41.0755 8.63243 -9.02606
RightHand  -0.46412 1.06726 -8.46843
LeftUpLeg  -96.5715 -0.793879 8.52351
LeftLeg  120.22 -3.46686 4.92943
LeftFoot  -35.2711 -1.42033 -7.69971
LeftToes  -7.12384e-010 -7.51861e-011 -8.34901e-011
131
root  -27.7284 17.6759 124.35 -169.44 76.5764 178.55
RightUpLeg  -85.9909 -6.25428 12.1191
RightLeg  123.132 10.7365 -14.22
RightFoot  -48.8459 1.25167 4.6856
RightToes  -3.4386e-010 1.2921e-014 -6.02303e-014
Spine  56.4291 -6.82344 8.58841
Spine1  4.76101 3.74045 -12.248
HEad  -12.67 -7.82538 -5.03493
LeftShoulder1  3.49561 -14.8946 -12.3403
LeftArm  9.68995 -29.8131 -44.2385
LeftForeArm  -20.6646 -57.1714 -19.3386
LeftHand  -0.0300261 5.24895 8.65991
RightShoulder  0.624354 11.4733 -4.68891
RightArm  -84.8261 65.4231 -19.7918
RightForeArm  43.6827 8.34488 -8.40107
RightHand  -0.45342 1.18519 -8.13753
LeftUpLeg  -95.0261 -1.88447 8.16999
LeftLeg  120.431 -3.56727 5.0443
LeftFoot  -35.6112 -1.57743 -8.32644
LeftToes  -7.12384e-010 -7.51861e-011 -8.34901e-011
132
root  -27.6533 17.6961 124.462 -172.802 76.0511 175.148
RightUpLeg  -85.9972 -6.53086 11.5422
RightLeg  123.427 10.9405 -14.3335
RightFoot  -48.6859 1.29537 4.8328
RightToes  -3.4386e-010 1.2921e-014 -6.02303e-014
Spine  56.1916 -7.66408 7.84597
Spine1  5.41905 3.00555 -14.4498
HEad  -12.6504 -7.2262 -4.35656
LeftShoulder1  3.01556 -14.2303 -10.1158
LeftArm  9.8804 -30.6312 -44.474
LeftForeArm  -19.4723 -57.0863 -19.193
LeftHand  -0.0482512 4.9686 8.07284
RightShoulder  0.553159 11.6931 -5.30274
RightArm  -86.0164 65.9583 -20.4191
RightForeArm  45.0199 8.16642 -8.69157
RightHand  -0.410196 1.24321 -7.31492
LeftUpLeg  -94.6758 -2.61485 7.8412
LeftLeg  120.162 -3.57793 5.11503
LeftFoot  -35.7619 -1.6658 -8.68452
LeftToes  -7.12384e-010 -7.51861e-011 -8.34901e-011
133
root  -27.4788 17.8963 124.555 -172.501 75.6417 173.167
RightUpLeg  -87.5981 -6.10816 11.3582
RightLeg  122.753 10.9332 -14.679
RightFoot  -48.4978 1.40308 5.17498
RightToes  -3.4386e-010 1.2921e-014 -6.02303e-014
Spine  53.4247 -7.11445 7.37741
Spine1  6.43593 3.17077 -14.5555
HEad  -11.9834 -7.39548 -4.70954
LeftShoulder1  2.95997 -14.2948 -9.69332
LeftArm  9.84072 -32.5089 -45.3097
LeftForeArm  -19.4022 -54.8894 -17.6073
LeftHand  -0.0794609 3.82424 4.63916
RightShoulder  0.503377 11.9157 -5.73814
RightArm  -85.016 65.7956 -19.9005
RightForeArm  43.5533 7.51149 -8.65487
RightHand  -0.37741 1.39481 -6.60277
LeftUpLeg  -96.0784 -2.66549 7.73137
LeftLeg  119.23 -3.46463 5.12509
LeftFoot  -35.6901 -1.67965 -8.77264
LeftToes  -7.12384e-010 -7.51861e-011 -8.34901e-011
